<svg width="163.04" height="45.754" viewBox="0 0 163.04 45.754" fill="none" xmlns="http://www.w3.org/2000/svg">
<g id="cover-llama-light 1">
<path id="Vector" d="M45.754 29.8923L38.4527 42.5512L38.4096 42.524C36.9261 44.5407 34.561 45.754 32.0225 45.754H9.1508L16.6096 32.825L18.3016 29.8923H45.754ZM18.3016 29.8923H0L8.62287 14.9466L14.958 3.96564C16.3738 1.51164 18.9914 0 21.8238 0C22.1018 0 22.3746 0.0138161 22.6421 0.0404766L22.6482 0H35.5474L18.3016 29.8923Z" fill="currentColor"/>
<path id="Vector_2" d="M72.2707 34.8437V15.9561C72.2707 15.2583 72.0675 14.7172 71.6618 14.3344C71.2791 13.9288 70.7388 13.7264 70.0402 13.7264H65.9179V10.8545H70.4124C72.1466 10.8545 73.4533 11.305 74.3314 12.206C75.2324 13.0841 75.6829 14.3908 75.6829 16.125V34.8437H72.2707ZM65.2422 34.8437V31.9717H81.7312V34.8437H65.2422ZM92.53 34.8437V15.9561C92.53 15.2583 92.3268 14.7172 91.9212 14.3344C91.5384 13.9288 90.9982 13.7264 90.2996 13.7264H86.1773V10.8545H90.6717C92.406 10.8545 93.7126 11.305 94.5908 12.206C95.4918 13.0841 95.9422 14.3908 95.9422 16.125V34.8437H92.53ZM85.5015 34.8437V31.9717H101.991V34.8437H85.5015ZM111.573 35.2493C110.446 35.2493 109.433 35.046 108.532 34.6413C107.631 34.2357 106.91 33.6611 106.37 32.9176C105.852 32.1741 105.592 31.3074 105.592 30.3158C105.592 28.7848 106.054 27.5908 106.978 26.7347C107.924 25.8785 109.343 25.2705 111.235 24.9098L117.046 23.6938C117.046 22.2974 116.742 21.2494 116.134 20.5517C115.526 19.8531 114.613 19.5038 113.397 19.5038C112.271 19.5038 111.392 19.7633 110.762 20.2816C110.131 20.799 109.703 21.5205 109.478 22.4435L105.896 22.2068C106.234 20.4954 107.056 19.1096 108.363 18.0511C109.669 16.9926 111.347 16.4629 113.397 16.4629C115.695 16.4629 117.44 17.1166 118.634 18.4233C119.85 19.729 120.458 21.531 120.458 23.8293V30.9247C120.458 31.3294 120.549 31.6224 120.73 31.8028C120.909 31.9603 121.169 32.0395 121.506 32.0395H122.52V34.8437C122.385 34.8666 122.159 34.8886 121.844 34.9114C121.551 34.9334 121.258 34.9449 120.965 34.9449C120.155 34.9449 119.468 34.8102 118.905 34.5392C118.341 34.2691 117.914 33.8529 117.621 33.2898C117.351 32.7038 117.192 31.9717 117.147 31.0936H117.689C117.553 31.882 117.204 32.5912 116.641 33.222C116.078 33.8529 115.357 34.3483 114.479 34.7082C113.6 35.0689 112.631 35.2493 111.573 35.2493ZM112.079 32.4451C113.161 32.4451 114.073 32.2533 114.817 31.8705C115.559 31.4878 116.112 30.9467 116.472 30.2489C116.854 29.5503 117.046 28.7285 117.046 27.7817V26.3968L112.046 27.4104C110.965 27.6128 110.21 27.9287 109.782 28.3563C109.354 28.7848 109.14 29.3479 109.14 30.0457C109.14 30.7892 109.399 31.3752 109.917 31.8028C110.435 32.2304 111.156 32.4451 112.079 32.4451ZM125.344 34.8437V16.8685H128.319L128.453 20.923L128.082 20.8218C128.307 19.4475 128.746 18.3775 129.399 17.612C130.075 16.8465 130.919 16.4629 131.933 16.4629C133.014 16.4629 133.826 16.8465 134.366 17.612C134.929 18.3775 135.278 19.5152 135.414 21.0242H135.042C135.245 19.5829 135.706 18.4681 136.428 17.6798C137.148 16.8685 138.049 16.4629 139.131 16.4629C140.549 16.4629 141.574 16.9591 142.205 17.9499C142.858 18.9186 143.185 20.5068 143.185 22.7136V34.8437H139.873V23.2882C139.873 21.8469 139.716 20.8447 139.401 20.2816C139.108 19.7185 138.646 19.4369 138.015 19.4369C137.61 19.4369 137.238 19.5715 136.9 19.8416C136.585 20.1126 136.337 20.5403 136.157 21.1263C135.977 21.6894 135.886 22.432 135.886 23.3559V34.8437H132.643V23.2882C132.643 21.8918 132.496 20.901 132.204 20.315C131.933 19.729 131.472 19.4369 130.818 19.4369C130.391 19.4369 130.018 19.5715 129.703 19.8416C129.388 20.1126 129.129 20.5403 128.926 21.1263C128.746 21.6894 128.656 22.432 128.656 23.3559V34.8437H125.344ZM152.091 35.2493C150.965 35.2493 149.951 35.046 149.05 34.6413C148.149 34.2357 147.429 33.6611 146.888 32.9176C146.37 32.1741 146.111 31.3074 146.111 30.3158C146.111 28.7848 146.573 27.5908 147.496 26.7347C148.442 25.8785 149.862 25.2705 151.753 24.9098L157.565 23.6938C157.565 22.2974 157.261 21.2494 156.653 20.5517C156.045 19.8531 155.132 19.5038 153.916 19.5038C152.79 19.5038 151.911 19.7633 151.281 20.2816C150.65 20.799 150.221 21.5205 149.996 22.4435L146.415 22.2068C146.753 20.4954 147.575 19.1096 148.881 18.0511C150.188 16.9926 151.866 16.4629 153.916 16.4629C156.213 16.4629 157.959 17.1166 159.153 18.4233C160.369 19.729 160.977 21.531 160.977 23.8293V30.9247C160.977 31.3294 161.068 31.6224 161.248 31.8028C161.428 31.9603 161.687 32.0395 162.025 32.0395H163.039V34.8437C162.903 34.8666 162.678 34.8886 162.363 34.9114C162.07 34.9334 161.777 34.9449 161.484 34.9449C160.674 34.9449 159.986 34.8102 159.423 34.5392C158.86 34.2691 158.433 33.8529 158.14 33.2898C157.869 32.7038 157.711 31.9717 157.666 31.0936H158.207C158.072 31.882 157.722 32.5912 157.159 33.222C156.596 33.8529 155.876 34.3483 154.997 34.7082C154.118 35.0689 153.15 35.2493 152.091 35.2493ZM152.598 32.4451C153.679 32.4451 154.592 32.2533 155.335 31.8705C156.078 31.4878 156.631 30.9467 156.99 30.2489C157.373 29.5503 157.565 28.7285 157.565 27.7817V26.3968L152.565 27.4104C151.483 27.6128 150.728 27.9287 150.301 28.3563C149.873 28.7848 149.658 29.3479 149.658 30.0457C149.658 30.7892 149.918 31.3752 150.436 31.8028C150.954 32.2304 151.675 32.4451 152.598 32.4451Z" fill="currentColor"/>
</g>
</svg>
