<svg preserveAspectRatio="none" overflow="visible" style="display: block;" width="28" height="28" viewBox="0 0 28 28" fill="none" xmlns="http://www.w3.org/2000/svg">
<g id="chat-bubble--Streamline-Pixel">
<path id="Vector" d="M4 3H24V5H4V3Z" fill="#999696"/>
<path id="Vector_2" d="M4 17H24V19H4V17Z" fill="#999696"/>
<path id="Vector_3" d="M2 5H4V17H2V5Z" fill="#999696"/>
<path id="Vector_4" d="M24 5H26V17H24V5Z" fill="#999696"/>
<path id="Vector_5" d="M7 19H13V21H7V19Z" fill="#999696"/>
<path id="Vector_6" d="M7 21H11V23H7V21Z" fill="#999696"/>
<path id="Vector_7" d="M7 23H9V25H7V23Z" fill="#999696"/>
<path id="Vector_8" d="M7 9H10V12H7V9Z" fill="#999696"/>
<path id="Vector_9" d="M12.5 9H15.5V12H12.5V9Z" fill="#999696"/>
<path id="Vector_10" d="M18 9H21V12H18V9Z" fill="#999696"/>
</g>
</svg>
